<svg class="marks" width="1200" height="500" viewBox="0 0 1200 500" version="1.1" xmlns="http://www.w3.org/2000/svg" xmlns:xlink="http://www.w3.org/1999/xlink"><g transform="translate(0,0)"><g class="mark-group role-frame root"><g transform="translate(0,0)"><path class="background" d="M0,0h1200v500h-1200Z" style="fill: none;"></path><g><g class="mark-path role-mark links" style="pointer-events: none;"><path transform="translate(0,0)" d="M443.7953638129515,407.403312686114L458.6312262210035,365.9256446026234" style="fill: none; stroke: #ccc; stroke-width: 0.5;"></path><path transform="translate(0,0)" d="M498.2321700162731,311.3546330874447L458.6312262210035,365.9256446026234" style="fill: none; stroke: #ccc; stroke-width: 0.5;"></path><path transform="translate(0,0)" d="M514.2401416808648,325.5834001931883L458.6312262210035,365.9256446026234" style="fill: none; stroke: #ccc; stroke-width: 0.5;"></path><path transform="translate(0,0)" d="M514.2401416808648,325.5834001931883L498.2321700162731,311.3546330874447" style="fill: none; stroke: #ccc; stroke-width: 0.5;"></path><path transform="translate(0,0)" d="M433.55551377722213,390.227738752711L458.6312262210035,365.9256446026234" style="fill: none; stroke: #ccc; stroke-width: 0.5;"></path><path transform="translate(0,0)" d="M423.3016972277261,373.0620208324311L458.6312262210035,365.9256446026234" style="fill: none; stroke: #ccc; stroke-width: 0.5;"></path><path transform="translate(0,0)" d="M463.7373763446588,406.0381172281403L458.6312262210035,365.9256446026234" style="fill: none; stroke: #ccc; stroke-width: 0.5;"></path><path transform="translate(0,0)" d="M413.55829822018933,390.5071189620291L458.6312262210035,365.9256446026234" style="fill: none; stroke: #ccc; stroke-width: 0.5;"></path><path transform="translate(0,0)" d="M415.31939860851537,354.73807962982045L458.6312262210035,365.9256446026234" style="fill: none; stroke: #ccc; stroke-width: 0.5;"></path><path transform="translate(0,0)" d="M423.80893431877666,407.674339766563L458.6312262210035,365.9256446026234" style="fill: none; stroke: #ccc; stroke-width: 0.5;"></path><path transform="translate(0,0)" d="M581.9732336026941,275.3949753799287L604.8634203234334,304.38464053468584" style="fill: none; stroke: #ccc; stroke-width: 0.5;"></path><path transform="translate(0,0)" d="M581.9732336026941,275.3949753799287L514.2401416808648,325.5834001931883" style="fill: none; stroke: #ccc; stroke-width: 0.5;"></path><path transform="translate(0,0)" d="M581.9732336026941,275.3949753799287L498.2321700162731,311.3546330874447" style="fill: none; stroke: #ccc; stroke-width: 0.5;"></path><path transform="translate(0,0)" d="M581.9732336026941,275.3949753799287L458.6312262210035,365.9256446026234" style="fill: none; stroke: #ccc; stroke-width: 0.5;"></path><path transform="translate(0,0)" d="M512.3080472608069,227.66335191339977L581.9732336026941,275.3949753799287" style="fill: none; stroke: #ccc; stroke-width: 0.5;"></path><path transform="translate(0,0)" d="M585.5262995048894,309.4852989188598L581.9732336026941,275.3949753799287" style="fill: none; stroke: #ccc; stroke-width: 0.5;"></path><path transform="translate(0,0)" d="M549.4444938646427,292.07417374833744L581.9732336026941,275.3949753799287" style="fill: none; stroke: #ccc; stroke-width: 0.5;"></path><path transform="translate(0,0)" d="M544.3268024457544,272.7411976050241L581.9732336026941,275.3949753799287" style="fill: none; stroke: #ccc; stroke-width: 0.5;"></path><path transform="translate(0,0)" d="M417.83772412898287,132.04747638614143L476.1678030297617,128.08230001688645" style="fill: none; stroke: #ccc; stroke-width: 0.5;"></path><path transform="translate(0,0)" d="M419.02989888160283,94.75484645503336L476.1678030297617,128.08230001688645" style="fill: none; stroke: #ccc; stroke-width: 0.5;"></path><path transform="translate(0,0)" d="M419.02989888160283,94.75484645503336L417.83772412898287,132.04747638614143" style="fill: none; stroke: #ccc; stroke-width: 0.5;"></path><path transform="translate(0,0)" d="M399.62739576123755,141.66447482883183L476.1678030297617,128.08230001688645" style="fill: none; stroke: #ccc; stroke-width: 0.5;"></path><path transform="translate(0,0)" d="M399.62739576123755,141.66447482883183L417.83772412898287,132.04747638614143" style="fill: none; stroke: #ccc; stroke-width: 0.5;"></path><path transform="translate(0,0)" d="M399.62739576123755,141.66447482883183L419.02989888160283,94.75484645503336" style="fill: none; stroke: #ccc; stroke-width: 0.5;"></path><path transform="translate(0,0)" d="M399.35948885109997,104.36058214902931L476.1678030297617,128.08230001688645" style="fill: none; stroke: #ccc; stroke-width: 0.5;"></path><path transform="translate(0,0)" d="M399.35948885109997,104.36058214902931L417.83772412898287,132.04747638614143" style="fill: none; stroke: #ccc; stroke-width: 0.5;"></path><path transform="translate(0,0)" d="M399.35948885109997,104.36058214902931L419.02989888160283,94.75484645503336" style="fill: none; stroke: #ccc; stroke-width: 0.5;"></path><path transform="translate(0,0)" d="M399.35948885109997,104.36058214902931L399.62739576123755,141.66447482883183" style="fill: none; stroke: #ccc; stroke-width: 0.5;"></path><path transform="translate(0,0)" d="M427.54185282536105,112.85305044640049L476.1678030297617,128.08230001688645" style="fill: none; stroke: #ccc; stroke-width: 0.5;"></path><path transform="translate(0,0)" d="M427.54185282536105,112.85305044640049L417.83772412898287,132.04747638614143" style="fill: none; stroke: #ccc; stroke-width: 0.5;"></path><path transform="translate(0,0)" d="M427.54185282536105,112.85305044640049L419.02989888160283,94.75484645503336" style="fill: none; stroke: #ccc; stroke-width: 0.5;"></path><path transform="translate(0,0)" d="M427.54185282536105,112.85305044640049L399.62739576123755,141.66447482883183" style="fill: none; stroke: #ccc; stroke-width: 0.5;"></path><path transform="translate(0,0)" d="M427.54185282536105,112.85305044640049L399.35948885109997,104.36058214902931" style="fill: none; stroke: #ccc; stroke-width: 0.5;"></path><path transform="translate(0,0)" d="M389.7272107486644,122.82785681146518L476.1678030297617,128.08230001688645" style="fill: none; stroke: #ccc; stroke-width: 0.5;"></path><path transform="translate(0,0)" d="M389.7272107486644,122.82785681146518L417.83772412898287,132.04747638614143" style="fill: none; stroke: #ccc; stroke-width: 0.5;"></path><path transform="translate(0,0)" d="M389.7272107486644,122.82785681146518L419.02989888160283,94.75484645503336" style="fill: none; stroke: #ccc; stroke-width: 0.5;"></path><path transform="translate(0,0)" d="M389.7272107486644,122.82785681146518L399.62739576123755,141.66447482883183" style="fill: none; stroke: #ccc; stroke-width: 0.5;"></path><path transform="translate(0,0)" d="M389.7272107486644,122.82785681146518L399.35948885109997,104.36058214902931" style="fill: none; stroke: #ccc; stroke-width: 0.5;"></path><path transform="translate(0,0)" d="M389.7272107486644,122.82785681146518L427.54185282536105,112.85305044640049" style="fill: none; stroke: #ccc; stroke-width: 0.5;"></path><path transform="translate(0,0)" d="M477.6382880150291,177.2554407903488L476.1678030297617,128.08230001688645" style="fill: none; stroke: #ccc; stroke-width: 0.5;"></path><path transform="translate(0,0)" d="M477.6382880150291,177.2554407903488L417.83772412898287,132.04747638614143" style="fill: none; stroke: #ccc; stroke-width: 0.5;"></path><path transform="translate(0,0)" d="M477.6382880150291,177.2554407903488L419.02989888160283,94.75484645503336" style="fill: none; stroke: #ccc; stroke-width: 0.5;"></path><path transform="translate(0,0)" d="M477.6382880150291,177.2554407903488L399.62739576123755,141.66447482883183" style="fill: none; stroke: #ccc; stroke-width: 0.5;"></path><path transform="translate(0,0)" d="M477.6382880150291,177.2554407903488L399.35948885109997,104.36058214902931" style="fill: none; stroke: #ccc; stroke-width: 0.5;"></path><path transform="translate(0,0)" d="M477.6382880150291,177.2554407903488L427.54185282536105,112.85305044640049" style="fill: none; stroke: #ccc; stroke-width: 0.5;"></path><path transform="translate(0,0)" d="M477.6382880150291,177.2554407903488L389.7272107486644,122.82785681146518" style="fill: none; stroke: #ccc; stroke-width: 0.5;"></path><path transform="translate(0,0)" d="M477.6382880150291,177.2554407903488L512.3080472608069,227.66335191339977" style="fill: none; stroke: #ccc; stroke-width: 0.5;"></path><path transform="translate(0,0)" d="M477.6382880150291,177.2554407903488L581.9732336026941,275.3949753799287" style="fill: none; stroke: #ccc; stroke-width: 0.5;"></path><path transform="translate(0,0)" d="M608.6714915080366,223.66328204630307L477.6382880150291,177.2554407903488" style="fill: none; stroke: #ccc; stroke-width: 0.5;"></path><path transform="translate(0,0)" d="M608.6714915080366,223.66328204630307L581.9732336026941,275.3949753799287" style="fill: none; stroke: #ccc; stroke-width: 0.5;"></path><path transform="translate(0,0)" d="M642.9515040999959,233.18152113974608L608.6714915080366,223.66328204630307" style="fill: none; stroke: #ccc; stroke-width: 0.5;"></path><path transform="translate(0,0)" d="M642.9515040999959,233.18152113974608L477.6382880150291,177.2554407903488" style="fill: none; stroke: #ccc; stroke-width: 0.5;"></path><path transform="translate(0,0)" d="M642.9515040999959,233.18152113974608L581.9732336026941,275.3949753799287" style="fill: none; stroke: #ccc; stroke-width: 0.5;"></path><path transform="translate(0,0)" d="M580.1874742488745,192.0192201503581L608.6714915080366,223.66328204630307" style="fill: none; stroke: #ccc; stroke-width: 0.5;"></path><path transform="translate(0,0)" d="M580.1874742488745,192.0192201503581L581.9732336026941,275.3949753799287" style="fill: none; stroke: #ccc; stroke-width: 0.5;"></path><path transform="translate(0,0)" d="M580.1874742488745,192.0192201503581L476.1678030297617,128.08230001688645" style="fill: none; stroke: #ccc; stroke-width: 0.5;"></path><path transform="translate(0,0)" d="M580.1874742488745,192.0192201503581L642.9515040999959,233.18152113974608" style="fill: none; stroke: #ccc; stroke-width: 0.5;"></path><path transform="translate(0,0)" d="M606.1081512335322,256.4185628955555L581.9732336026941,275.3949753799287" style="fill: none; stroke: #ccc; stroke-width: 0.5;"></path><path transform="translate(0,0)" d="M606.1081512335322,256.4185628955555L477.6382880150291,177.2554407903488" style="fill: none; stroke: #ccc; stroke-width: 0.5;"></path><path transform="translate(0,0)" d="M606.1081512335322,256.4185628955555L642.9515040999959,233.18152113974608" style="fill: none; stroke: #ccc; stroke-width: 0.5;"></path><path transform="translate(0,0)" d="M606.1081512335322,256.4185628955555L608.6714915080366,223.66328204630307" style="fill: none; stroke: #ccc; stroke-width: 0.5;"></path><path transform="translate(0,0)" d="M606.1081512335322,256.4185628955555L580.1874742488745,192.0192201503581" style="fill: none; stroke: #ccc; stroke-width: 0.5;"></path><path transform="translate(0,0)" d="M578.5644392687642,328.2291268411255L581.9732336026941,275.3949753799287" style="fill: none; stroke: #ccc; stroke-width: 0.5;"></path><path transform="translate(0,0)" d="M578.5644392687642,328.2291268411255L606.1081512335322,256.4185628955555" style="fill: none; stroke: #ccc; stroke-width: 0.5;"></path><path transform="translate(0,0)" d="M512.8031618630108,289.0148888972057L477.6382880150291,177.2554407903488" style="fill: none; stroke: #ccc; stroke-width: 0.5;"></path><path transform="translate(0,0)" d="M512.8031618630108,289.0148888972057L606.1081512335322,256.4185628955555" style="fill: none; stroke: #ccc; stroke-width: 0.5;"></path><path transform="translate(0,0)" d="M512.8031618630108,289.0148888972057L581.9732336026941,275.3949753799287" style="fill: none; stroke: #ccc; stroke-width: 0.5;"></path><path transform="translate(0,0)" d="M474.7901185674864,210.1101565435234L477.6382880150291,177.2554407903488" style="fill: none; stroke: #ccc; stroke-width: 0.5;"></path><path transform="translate(0,0)" d="M532.2778791385103,226.7596883818114L474.7901185674864,210.1101565435234" style="fill: none; stroke: #ccc; stroke-width: 0.5;"></path><path transform="translate(0,0)" d="M532.2778791385103,226.7596883818114L581.9732336026941,275.3949753799287" style="fill: none; stroke: #ccc; stroke-width: 0.5;"></path><path transform="translate(0,0)" d="M532.2778791385103,226.7596883818114L477.6382880150291,177.2554407903488" style="fill: none; stroke: #ccc; stroke-width: 0.5;"></path><path transform="translate(0,0)" d="M532.2778791385103,226.7596883818114L606.1081512335322,256.4185628955555" style="fill: none; stroke: #ccc; stroke-width: 0.5;"></path><path transform="translate(0,0)" d="M563.4037715398712,306.39610824785467L581.9732336026941,275.3949753799287" style="fill: none; stroke: #ccc; stroke-width: 0.5;"></path><path transform="translate(0,0)" d="M562.9858004130375,253.6539683835812L581.9732336026941,275.3949753799287" style="fill: none; stroke: #ccc; stroke-width: 0.5;"></path><path transform="translate(0,0)" d="M562.9858004130375,253.6539683835812L606.1081512335322,256.4185628955555" style="fill: none; stroke: #ccc; stroke-width: 0.5;"></path><path transform="translate(0,0)" d="M533.7494743120698,329.9715518448439L581.9732336026941,275.3949753799287" style="fill: none; stroke: #ccc; stroke-width: 0.5;"></path><path transform="translate(0,0)" d="M533.7494743120698,329.9715518448439L512.8031618630108,289.0148888972057" style="fill: none; stroke: #ccc; stroke-width: 0.5;"></path><path transform="translate(0,0)" d="M495.01813301297665,331.09332983277375L581.9732336026941,275.3949753799287" style="fill: none; stroke: #ccc; stroke-width: 0.5;"></path><path transform="translate(0,0)" d="M495.01813301297665,331.09332983277375L533.7494743120698,329.9715518448439" style="fill: none; stroke: #ccc; stroke-width: 0.5;"></path><path transform="translate(0,0)" d="M495.01813301297665,331.09332983277375L512.8031618630108,289.0148888972057" style="fill: none; stroke: #ccc; stroke-width: 0.5;"></path><path transform="translate(0,0)" d="M543.0676056346341,349.0563799474161L533.7494743120698,329.9715518448439" style="fill: none; stroke: #ccc; stroke-width: 0.5;"></path><path transform="translate(0,0)" d="M543.0676056346341,349.0563799474161L495.01813301297665,331.09332983277375" style="fill: none; stroke: #ccc; stroke-width: 0.5;"></path><path transform="translate(0,0)" d="M543.0676056346341,349.0563799474161L581.9732336026941,275.3949753799287" style="fill: none; stroke: #ccc; stroke-width: 0.5;"></path><path transform="translate(0,0)" d="M543.0676056346341,349.0563799474161L512.8031618630108,289.0148888972057" style="fill: none; stroke: #ccc; stroke-width: 0.5;"></path><path transform="translate(0,0)" d="M526.2558235784581,360.0541557772087L533.7494743120698,329.9715518448439" style="fill: none; stroke: #ccc; stroke-width: 0.5;"></path><path transform="translate(0,0)" d="M526.2558235784581,360.0541557772087L495.01813301297665,331.09332983277375" style="fill: none; stroke: #ccc; stroke-width: 0.5;"></path><path transform="translate(0,0)" d="M526.2558235784581,360.0541557772087L543.0676056346341,349.0563799474161" style="fill: none; stroke: #ccc; stroke-width: 0.5;"></path><path transform="translate(0,0)" d="M526.2558235784581,360.0541557772087L581.9732336026941,275.3949753799287" style="fill: none; stroke: #ccc; stroke-width: 0.5;"></path><path transform="translate(0,0)" d="M526.2558235784581,360.0541557772087L512.8031618630108,289.0148888972057" style="fill: none; stroke: #ccc; stroke-width: 0.5;"></path><path transform="translate(0,0)" d="M510.315055777755,346.0111384986773L533.7494743120698,329.9715518448439" style="fill: none; stroke: #ccc; stroke-width: 0.5;"></path><path transform="translate(0,0)" d="M510.315055777755,346.0111384986773L495.01813301297665,331.09332983277375" style="fill: none; stroke: #ccc; stroke-width: 0.5;"></path><path transform="translate(0,0)" d="M510.315055777755,346.0111384986773L543.0676056346341,349.0563799474161" style="fill: none; stroke: #ccc; stroke-width: 0.5;"></path><path transform="translate(0,0)" d="M510.315055777755,346.0111384986773L526.2558235784581,360.0541557772087" style="fill: none; stroke: #ccc; stroke-width: 0.5;"></path><path transform="translate(0,0)" d="M510.315055777755,346.0111384986773L581.9732336026941,275.3949753799287" style="fill: none; stroke: #ccc; stroke-width: 0.5;"></path><path transform="translate(0,0)" d="M510.315055777755,346.0111384986773L512.8031618630108,289.0148888972057" style="fill: none; stroke: #ccc; stroke-width: 0.5;"></path><path transform="translate(0,0)" d="M658.5184765676283,171.0359345056189L642.9515040999959,233.18152113974608" style="fill: none; stroke: #ccc; stroke-width: 0.5;"></path><path transform="translate(0,0)" d="M631.9975966216448,202.1233787593499L642.9515040999959,233.18152113974608" style="fill: none; stroke: #ccc; stroke-width: 0.5;"></path><path transform="translate(0,0)" d="M696.8145657081535,232.82508270296927L608.6714915080366,223.66328204630307" style="fill: none; stroke: #ccc; stroke-width: 0.5;"></path><path transform="translate(0,0)" d="M696.8145657081535,232.82508270296927L642.9515040999959,233.18152113974608" style="fill: none; stroke: #ccc; stroke-width: 0.5;"></path><path transform="translate(0,0)" d="M660.2799241594613,210.27708395728212L696.8145657081535,232.82508270296927" style="fill: none; stroke: #ccc; stroke-width: 0.5;"></path><path transform="translate(0,0)" d="M660.2799241594613,210.27708395728212L642.9515040999959,233.18152113974608" style="fill: none; stroke: #ccc; stroke-width: 0.5;"></path><path transform="translate(0,0)" d="M660.2799241594613,210.27708395728212L608.6714915080366,223.66328204630307" style="fill: none; stroke: #ccc; stroke-width: 0.5;"></path><path transform="translate(0,0)" d="M561.022024452227,233.75100229676917L581.9732336026941,275.3949753799287" style="fill: none; stroke: #ccc; stroke-width: 0.5;"></path><path transform="translate(0,0)" d="M561.022024452227,233.75100229676917L580.1874742488745,192.0192201503581" style="fill: none; stroke: #ccc; stroke-width: 0.5;"></path><path transform="translate(0,0)" d="M561.022024452227,233.75100229676917L606.1081512335322,256.4185628955555" style="fill: none; stroke: #ccc; stroke-width: 0.5;"></path><path transform="translate(0,0)" d="M602.315361581726,325.80535718906714L578.5644392687642,328.2291268411255" style="fill: none; stroke: #ccc; stroke-width: 0.5;"></path><path transform="translate(0,0)" d="M602.315361581726,325.80535718906714L581.9732336026941,275.3949753799287" style="fill: none; stroke: #ccc; stroke-width: 0.5;"></path><path transform="translate(0,0)" d="M577.6093063017047,371.8311120782261L578.5644392687642,328.2291268411255" style="fill: none; stroke: #ccc; stroke-width: 0.5;"></path><path transform="translate(0,0)" d="M778.3677859008643,303.86158948860225L804.0518554954082,339.6162103158887" style="fill: none; stroke: #ccc; stroke-width: 0.5;"></path><path transform="translate(0,0)" d="M740.4644814942574,254.19557707500203L778.3677859008643,303.86158948860225" style="fill: none; stroke: #ccc; stroke-width: 0.5;"></path><path transform="translate(0,0)" d="M740.4644814942574,254.19557707500203L642.9515040999959,233.18152113974608" style="fill: none; stroke: #ccc; stroke-width: 0.5;"></path><path transform="translate(0,0)" d="M740.4644814942574,254.19557707500203L606.1081512335322,256.4185628955555" style="fill: none; stroke: #ccc; stroke-width: 0.5;"></path><path transform="translate(0,0)" d="M740.4644814942574,254.19557707500203L581.9732336026941,275.3949753799287" style="fill: none; stroke: #ccc; stroke-width: 0.5;"></path><path transform="translate(0,0)" d="M626.170006958596,182.99202427777578L580.1874742488745,192.0192201503581" style="fill: none; stroke: #ccc; stroke-width: 0.5;"></path><path transform="translate(0,0)" d="M626.170006958596,182.99202427777578L581.9732336026941,275.3949753799287" style="fill: none; stroke: #ccc; stroke-width: 0.5;"></path><path transform="translate(0,0)" d="M592.8627242318597,176.55379984218834L626.170006958596,182.99202427777578" style="fill: none; stroke: #ccc; stroke-width: 0.5;"></path><path transform="translate(0,0)" d="M592.8627242318597,176.55379984218834L608.6714915080366,223.66328204630307" style="fill: none; stroke: #ccc; stroke-width: 0.5;"></path><path transform="translate(0,0)" d="M609.3342528861635,164.37503427743866L626.170006958596,182.99202427777578" style="fill: none; stroke: #ccc; stroke-width: 0.5;"></path><path transform="translate(0,0)" d="M609.3342528861635,164.37503427743866L580.1874742488745,192.0192201503581" style="fill: none; stroke: #ccc; stroke-width: 0.5;"></path><path transform="translate(0,0)" d="M609.3342528861635,164.37503427743866L581.9732336026941,275.3949753799287" style="fill: none; stroke: #ccc; stroke-width: 0.5;"></path><path transform="translate(0,0)" d="M631.8531376482078,125.41508537057987L609.3342528861635,164.37503427743866" style="fill: none; stroke: #ccc; stroke-width: 0.5;"></path><path transform="translate(0,0)" d="M631.8531376482078,125.41508537057987L658.5184765676283,171.0359345056189" style="fill: none; stroke: #ccc; stroke-width: 0.5;"></path><path transform="translate(0,0)" d="M593.1170235523937,125.7627510445412L609.3342528861635,164.37503427743866" style="fill: none; stroke: #ccc; stroke-width: 0.5;"></path><path transform="translate(0,0)" d="M637.1731946950333,150.28260384090785L609.3342528861635,164.37503427743866" style="fill: none; stroke: #ccc; stroke-width: 0.5;"></path><path transform="translate(0,0)" d="M637.1731946950333,150.28260384090785L626.170006958596,182.99202427777578" style="fill: none; stroke: #ccc; stroke-width: 0.5;"></path><path transform="translate(0,0)" d="M637.1731946950333,150.28260384090785L580.1874742488745,192.0192201503581" style="fill: none; stroke: #ccc; stroke-width: 0.5;"></path><path transform="translate(0,0)" d="M694.1174876961775,183.9442960290481L609.3342528861635,164.37503427743866" style="fill: none; stroke: #ccc; stroke-width: 0.5;"></path><path transform="translate(0,0)" d="M694.1174876961775,183.9442960290481L626.170006958596,182.99202427777578" style="fill: none; stroke: #ccc; stroke-width: 0.5;"></path><path transform="translate(0,0)" d="M694.1174876961775,183.9442960290481L658.5184765676283,171.0359345056189" style="fill: none; stroke: #ccc; stroke-width: 0.5;"></path><path transform="translate(0,0)" d="M694.1174876961775,183.9442960290481L637.1731946950333,150.28260384090785" style="fill: none; stroke: #ccc; stroke-width: 0.5;"></path><path transform="translate(0,0)" d="M694.1174876961775,183.9442960290481L580.1874742488745,192.0192201503581" style="fill: none; stroke: #ccc; stroke-width: 0.5;"></path><path transform="translate(0,0)" d="M694.1174876961775,183.9442960290481L581.9732336026941,275.3949753799287" style="fill: none; stroke: #ccc; stroke-width: 0.5;"></path><path transform="translate(0,0)" d="M694.1174876961775,183.9442960290481L476.1678030297617,128.08230001688645" style="fill: none; stroke: #ccc; stroke-width: 0.5;"></path><path transform="translate(0,0)" d="M694.1174876961775,183.9442960290481L642.9515040999959,233.18152113974608" style="fill: none; stroke: #ccc; stroke-width: 0.5;"></path><path transform="translate(0,0)" d="M694.1174876961775,183.9442960290481L696.8145657081535,232.82508270296927" style="fill: none; stroke: #ccc; stroke-width: 0.5;"></path><path transform="translate(0,0)" d="M694.1174876961775,183.9442960290481L740.4644814942574,254.19557707500203" style="fill: none; stroke: #ccc; stroke-width: 0.5;"></path><path transform="translate(0,0)" d="M668.2116647054603,151.45750469659492L626.170006958596,182.99202427777578" style="fill: none; stroke: #ccc; stroke-width: 0.5;"></path><path transform="translate(0,0)" d="M668.2116647054603,151.45750469659492L694.1174876961775,183.9442960290481" style="fill: none; stroke: #ccc; stroke-width: 0.5;"></path><path transform="translate(0,0)" d="M759.7828836144007,180.5673398473382L694.1174876961775,183.9442960290481" style="fill: none; stroke: #ccc; stroke-width: 0.5;"></path><path transform="translate(0,0)" d="M759.7828836144007,180.5673398473382L696.8145657081535,232.82508270296927" style="fill: none; stroke: #ccc; stroke-width: 0.5;"></path><path transform="translate(0,0)" d="M759.7828836144007,180.5673398473382L740.4644814942574,254.19557707500203" style="fill: none; stroke: #ccc; stroke-width: 0.5;"></path><path transform="translate(0,0)" d="M738.202778293078,221.73347929734743L694.1174876961775,183.9442960290481" style="fill: none; stroke: #ccc; stroke-width: 0.5;"></path><path transform="translate(0,0)" d="M738.202778293078,221.73347929734743L740.4644814942574,254.19557707500203" style="fill: none; stroke: #ccc; stroke-width: 0.5;"></path><path transform="translate(0,0)" d="M738.202778293078,221.73347929734743L606.1081512335322,256.4185628955555" style="fill: none; stroke: #ccc; stroke-width: 0.5;"></path><path transform="translate(0,0)" d="M738.202778293078,221.73347929734743L759.7828836144007,180.5673398473382" style="fill: none; stroke: #ccc; stroke-width: 0.5;"></path><path transform="translate(0,0)" d="M738.202778293078,221.73347929734743L581.9732336026941,275.3949753799287" style="fill: none; stroke: #ccc; stroke-width: 0.5;"></path><path transform="translate(0,0)" d="M787.4478799066452,184.17416010330035L738.202778293078,221.73347929734743" style="fill: none; stroke: #ccc; stroke-width: 0.5;"></path><path transform="translate(0,0)" d="M787.4478799066452,184.17416010330035L694.1174876961775,183.9442960290481" style="fill: none; stroke: #ccc; stroke-width: 0.5;"></path><path transform="translate(0,0)" d="M787.4478799066452,184.17416010330035L740.4644814942574,254.19557707500203" style="fill: none; stroke: #ccc; stroke-width: 0.5;"></path><path transform="translate(0,0)" d="M787.4478799066452,184.17416010330035L759.7828836144007,180.5673398473382" style="fill: none; stroke: #ccc; stroke-width: 0.5;"></path><path transform="translate(0,0)" d="M819.8169885257296,220.1633465300202L740.4644814942574,254.19557707500203" style="fill: none; stroke: #ccc; stroke-width: 0.5;"></path><path transform="translate(0,0)" d="M819.8169885257296,220.1633465300202L738.202778293078,221.73347929734743" style="fill: none; stroke: #ccc; stroke-width: 0.5;"></path><path transform="translate(0,0)" d="M819.8169885257296,220.1633465300202L787.4478799066452,184.17416010330035" style="fill: none; stroke: #ccc; stroke-width: 0.5;"></path><path transform="translate(0,0)" d="M785.063025850477,221.7309087748347L740.4644814942574,254.19557707500203" style="fill: none; stroke: #ccc; stroke-width: 0.5;"></path><path transform="translate(0,0)" d="M785.063025850477,221.7309087748347L738.202778293078,221.73347929734743" style="fill: none; stroke: #ccc; stroke-width: 0.5;"></path><path transform="translate(0,0)" d="M785.063025850477,221.7309087748347L819.8169885257296,220.1633465300202" style="fill: none; stroke: #ccc; stroke-width: 0.5;"></path><path transform="translate(0,0)" d="M785.063025850477,221.7309087748347L787.4478799066452,184.17416010330035" style="fill: none; stroke: #ccc; stroke-width: 0.5;"></path><path transform="translate(0,0)" d="M785.063025850477,221.7309087748347L759.7828836144007,180.5673398473382" style="fill: none; stroke: #ccc; stroke-width: 0.5;"></path><path transform="translate(0,0)" d="M785.063025850477,221.7309087748347L694.1174876961775,183.9442960290481" style="fill: none; stroke: #ccc; stroke-width: 0.5;"></path><path transform="translate(0,0)" d="M774.2469376888774,203.22560895564843L694.1174876961775,183.9442960290481" style="fill: none; stroke: #ccc; stroke-width: 0.5;"></path><path transform="translate(0,0)" d="M774.2469376888774,203.22560895564843L738.202778293078,221.73347929734743" style="fill: none; stroke: #ccc; stroke-width: 0.5;"></path><path transform="translate(0,0)" d="M774.2469376888774,203.22560895564843L787.4478799066452,184.17416010330035" style="fill: none; stroke: #ccc; stroke-width: 0.5;"></path><path transform="translate(0,0)" d="M774.2469376888774,203.22560895564843L740.4644814942574,254.19557707500203" style="fill: none; stroke: #ccc; stroke-width: 0.5;"></path><path transform="translate(0,0)" d="M774.2469376888774,203.22560895564843L759.7828836144007,180.5673398473382" style="fill: none; stroke: #ccc; stroke-width: 0.5;"></path><path transform="translate(0,0)" d="M774.2469376888774,203.22560895564843L696.8145657081535,232.82508270296927" style="fill: none; stroke: #ccc; stroke-width: 0.5;"></path><path transform="translate(0,0)" d="M774.2469376888774,203.22560895564843L785.063025850477,221.7309087748347" style="fill: none; stroke: #ccc; stroke-width: 0.5;"></path><path transform="translate(0,0)" d="M774.2469376888774,203.22560895564843L819.8169885257296,220.1633465300202" style="fill: none; stroke: #ccc; stroke-width: 0.5;"></path><path transform="translate(0,0)" d="M800.7409184827287,209.31423648577712L787.4478799066452,184.17416010330035" style="fill: none; stroke: #ccc; stroke-width: 0.5;"></path><path transform="translate(0,0)" d="M800.7409184827287,209.31423648577712L740.4644814942574,254.19557707500203" style="fill: none; stroke: #ccc; stroke-width: 0.5;"></path><path transform="translate(0,0)" d="M800.7409184827287,209.31423648577712L774.2469376888774,203.22560895564843" style="fill: none; stroke: #ccc; stroke-width: 0.5;"></path><path transform="translate(0,0)" d="M800.7409184827287,209.31423648577712L759.7828836144007,180.5673398473382" style="fill: none; stroke: #ccc; stroke-width: 0.5;"></path><path transform="translate(0,0)" d="M800.7409184827287,209.31423648577712L738.202778293078,221.73347929734743" style="fill: none; stroke: #ccc; stroke-width: 0.5;"></path><path transform="translate(0,0)" d="M800.7409184827287,209.31423648577712L785.063025850477,221.7309087748347" style="fill: none; stroke: #ccc; stroke-width: 0.5;"></path><path transform="translate(0,0)" d="M800.7409184827287,209.31423648577712L819.8169885257296,220.1633465300202" style="fill: none; stroke: #ccc; stroke-width: 0.5;"></path><path transform="translate(0,0)" d="M800.7409184827287,209.31423648577712L694.1174876961775,183.9442960290481" style="fill: none; stroke: #ccc; stroke-width: 0.5;"></path><path transform="translate(0,0)" d="M757.7223226022121,228.64763098702733L694.1174876961775,183.9442960290481" style="fill: none; stroke: #ccc; stroke-width: 0.5;"></path><path transform="translate(0,0)" d="M757.7223226022121,228.64763098702733L774.2469376888774,203.22560895564843" style="fill: none; stroke: #ccc; stroke-width: 0.5;"></path><path transform="translate(0,0)" d="M757.7223226022121,228.64763098702733L740.4644814942574,254.19557707500203" style="fill: none; stroke: #ccc; stroke-width: 0.5;"></path><path transform="translate(0,0)" d="M757.7223226022121,228.64763098702733L800.7409184827287,209.31423648577712" style="fill: none; stroke: #ccc; stroke-width: 0.5;"></path><path transform="translate(0,0)" d="M757.7223226022121,228.64763098702733L738.202778293078,221.73347929734743" style="fill: none; stroke: #ccc; stroke-width: 0.5;"></path><path transform="translate(0,0)" d="M757.7223226022121,228.64763098702733L785.063025850477,221.7309087748347" style="fill: none; stroke: #ccc; stroke-width: 0.5;"></path><path transform="translate(0,0)" d="M757.7223226022121,228.64763098702733L819.8169885257296,220.1633465300202" style="fill: none; stroke: #ccc; stroke-width: 0.5;"></path><path transform="translate(0,0)" d="M757.7223226022121,228.64763098702733L787.4478799066452,184.17416010330035" style="fill: none; stroke: #ccc; stroke-width: 0.5;"></path><path transform="translate(0,0)" d="M757.7223226022121,228.64763098702733L759.7828836144007,180.5673398473382" style="fill: none; stroke: #ccc; stroke-width: 0.5;"></path><path transform="translate(0,0)" d="M757.7223226022121,228.64763098702733L581.9732336026941,275.3949753799287" style="fill: none; stroke: #ccc; stroke-width: 0.5;"></path><path transform="translate(0,0)" d="M807.1398561338783,190.36747951356796L800.7409184827287,209.31423648577712" style="fill: none; stroke: #ccc; stroke-width: 0.5;"></path><path transform="translate(0,0)" d="M807.1398561338783,190.36747951356796L757.7223226022121,228.64763098702733" style="fill: none; stroke: #ccc; stroke-width: 0.5;"></path><path transform="translate(0,0)" d="M807.1398561338783,190.36747951356796L740.4644814942574,254.19557707500203" style="fill: none; stroke: #ccc; stroke-width: 0.5;"></path><path transform="translate(0,0)" d="M807.1398561338783,190.36747951356796L774.2469376888774,203.22560895564843" style="fill: none; stroke: #ccc; stroke-width: 0.5;"></path><path transform="translate(0,0)" d="M807.1398561338783,190.36747951356796L738.202778293078,221.73347929734743" style="fill: none; stroke: #ccc; stroke-width: 0.5;"></path><path transform="translate(0,0)" d="M807.1398561338783,190.36747951356796L785.063025850477,221.7309087748347" style="fill: none; stroke: #ccc; stroke-width: 0.5;"></path><path transform="translate(0,0)" d="M807.1398561338783,190.36747951356796L819.8169885257296,220.1633465300202" style="fill: none; stroke: #ccc; stroke-width: 0.5;"></path><path transform="translate(0,0)" d="M807.1398561338783,190.36747951356796L787.4478799066452,184.17416010330035" style="fill: none; stroke: #ccc; stroke-width: 0.5;"></path><path transform="translate(0,0)" d="M807.1398561338783,190.36747951356796L759.7828836144007,180.5673398473382" style="fill: none; stroke: #ccc; stroke-width: 0.5;"></path><path transform="translate(0,0)" d="M807.1398561338783,190.36747951356796L694.1174876961775,183.9442960290481" style="fill: none; stroke: #ccc; stroke-width: 0.5;"></path><path transform="translate(0,0)" d="M818.570467641823,240.12427497998436L757.7223226022121,228.64763098702733" style="fill: none; stroke: #ccc; stroke-width: 0.5;"></path><path transform="translate(0,0)" d="M818.570467641823,240.12427497998436L738.202778293078,221.73347929734743" style="fill: none; stroke: #ccc; stroke-width: 0.5;"></path><path transform="translate(0,0)" d="M818.570467641823,240.12427497998436L787.4478799066452,184.17416010330035" style="fill: none; stroke: #ccc; stroke-width: 0.5;"></path><path transform="translate(0,0)" d="M818.570467641823,240.12427497998436L774.2469376888774,203.22560895564843" style="fill: none; stroke: #ccc; stroke-width: 0.5;"></path><path transform="translate(0,0)" d="M818.570467641823,240.12427497998436L807.1398561338783,190.36747951356796" style="fill: none; stroke: #ccc; stroke-width: 0.5;"></path><path transform="translate(0,0)" d="M818.570467641823,240.12427497998436L740.4644814942574,254.19557707500203" style="fill: none; stroke: #ccc; stroke-width: 0.5;"></path><path transform="translate(0,0)" d="M818.570467641823,240.12427497998436L800.7409184827287,209.31423648577712" style="fill: none; stroke: #ccc; stroke-width: 0.5;"></path><path transform="translate(0,0)" d="M818.570467641823,240.12427497998436L785.063025850477,221.7309087748347" style="fill: none; stroke: #ccc; stroke-width: 0.5;"></path><path transform="translate(0,0)" d="M818.570467641823,240.12427497998436L819.8169885257296,220.1633465300202" style="fill: none; stroke: #ccc; stroke-width: 0.5;"></path><path transform="translate(0,0)" d="M782.2794929700933,147.1648203400411L759.7828836144007,180.5673398473382" style="fill: none; stroke: #ccc; stroke-width: 0.5;"></path><path transform="translate(0,0)" d="M671.0094892061591,277.8173408499372L642.9515040999959,233.18152113974608" style="fill: none; stroke: #ccc; stroke-width: 0.5;"></path><path transform="translate(0,0)" d="M671.0094892061591,277.8173408499372L581.9732336026941,275.3949753799287" style="fill: none; stroke: #ccc; stroke-width: 0.5;"></path><path transform="translate(0,0)" d="M671.0094892061591,277.8173408499372L608.6714915080366,223.66328204630307" style="fill: none; stroke: #ccc; stroke-width: 0.5;"></path><path transform="translate(0,0)" d="M671.0094892061591,277.8173408499372L606.1081512335322,256.4185628955555" style="fill: none; stroke: #ccc; stroke-width: 0.5;"></path><path transform="translate(0,0)" d="M671.0094892061591,277.8173408499372L740.4644814942574,254.19557707500203" style="fill: none; stroke: #ccc; stroke-width: 0.5;"></path><path transform="translate(0,0)" d="M671.0094892061591,277.8173408499372L696.8145657081535,232.82508270296927" style="fill: none; stroke: #ccc; stroke-width: 0.5;"></path><path transform="translate(0,0)" d="M652.0385447004616,271.49015090472795L642.9515040999959,233.18152113974608" style="fill: none; stroke: #ccc; stroke-width: 0.5;"></path><path transform="translate(0,0)" d="M652.0385447004616,271.49015090472795L671.0094892061591,277.8173408499372" style="fill: none; stroke: #ccc; stroke-width: 0.5;"></path><path transform="translate(0,0)" d="M652.0385447004616,271.49015090472795L581.9732336026941,275.3949753799287" style="fill: none; stroke: #ccc; stroke-width: 0.5;"></path><path transform="translate(0,0)" d="M652.0385447004616,271.49015090472795L608.6714915080366,223.66328204630307" style="fill: none; stroke: #ccc; stroke-width: 0.5;"></path><path transform="translate(0,0)" d="M652.0385447004616,271.49015090472795L606.1081512335322,256.4185628955555" style="fill: none; stroke: #ccc; stroke-width: 0.5;"></path><path transform="translate(0,0)" d="M652.0385447004616,271.49015090472795L740.4644814942574,254.19557707500203" style="fill: none; stroke: #ccc; stroke-width: 0.5;"></path><path transform="translate(0,0)" d="M652.0385447004616,271.49015090472795L696.8145657081535,232.82508270296927" style="fill: none; stroke: #ccc; stroke-width: 0.5;"></path><path transform="translate(0,0)" d="M663.9102307529081,254.5120379583502L642.9515040999959,233.18152113974608" style="fill: none; stroke: #ccc; stroke-width: 0.5;"></path><path transform="translate(0,0)" d="M663.9102307529081,254.5120379583502L652.0385447004616,271.49015090472795" style="fill: none; stroke: #ccc; stroke-width: 0.5;"></path><path transform="translate(0,0)" d="M663.9102307529081,254.5120379583502L671.0094892061591,277.8173408499372" style="fill: none; stroke: #ccc; stroke-width: 0.5;"></path><path transform="translate(0,0)" d="M663.9102307529081,254.5120379583502L581.9732336026941,275.3949753799287" style="fill: none; stroke: #ccc; stroke-width: 0.5;"></path><path transform="translate(0,0)" d="M663.9102307529081,254.5120379583502L608.6714915080366,223.66328204630307" style="fill: none; stroke: #ccc; stroke-width: 0.5;"></path><path transform="translate(0,0)" d="M663.9102307529081,254.5120379583502L606.1081512335322,256.4185628955555" style="fill: none; stroke: #ccc; stroke-width: 0.5;"></path><path transform="translate(0,0)" d="M663.9102307529081,254.5120379583502L696.8145657081535,232.82508270296927" style="fill: none; stroke: #ccc; stroke-width: 0.5;"></path><path transform="translate(0,0)" d="M663.9102307529081,254.5120379583502L738.202778293078,221.73347929734743" style="fill: none; stroke: #ccc; stroke-width: 0.5;"></path><path transform="translate(0,0)" d="M660.454549719746,294.80365363387097L606.1081512335322,256.4185628955555" style="fill: none; stroke: #ccc; stroke-width: 0.5;"></path><path transform="translate(0,0)" d="M660.454549719746,294.80365363387097L652.0385447004616,271.49015090472795" style="fill: none; stroke: #ccc; stroke-width: 0.5;"></path><path transform="translate(0,0)" d="M660.454549719746,294.80365363387097L671.0094892061591,277.8173408499372" style="fill: none; stroke: #ccc; stroke-width: 0.5;"></path><path transform="translate(0,0)" d="M660.454549719746,294.80365363387097L663.9102307529081,254.5120379583502" style="fill: none; stroke: #ccc; stroke-width: 0.5;"></path><path transform="translate(0,0)" d="M660.454549719746,294.80365363387097L581.9732336026941,275.3949753799287" style="fill: none; stroke: #ccc; stroke-width: 0.5;"></path><path transform="translate(0,0)" d="M660.454549719746,294.80365363387097L740.4644814942574,254.19557707500203" style="fill: none; stroke: #ccc; stroke-width: 0.5;"></path><path transform="translate(0,0)" d="M660.454549719746,294.80365363387097L696.8145657081535,232.82508270296927" style="fill: none; stroke: #ccc; stroke-width: 0.5;"></path><path transform="translate(0,0)" d="M660.454549719746,294.80365363387097L642.9515040999959,233.18152113974608" style="fill: none; stroke: #ccc; stroke-width: 0.5;"></path><path transform="translate(0,0)" d="M580.8120637908798,230.90542198799886L580.1874742488745,192.0192201503581" style="fill: none; stroke: #ccc; stroke-width: 0.5;"></path><path transform="translate(0,0)" d="M580.8120637908798,230.90542198799886L606.1081512335322,256.4185628955555" style="fill: none; stroke: #ccc; stroke-width: 0.5;"></path><path transform="translate(0,0)" d="M580.8120637908798,230.90542198799886L581.9732336026941,275.3949753799287" style="fill: none; stroke: #ccc; stroke-width: 0.5;"></path><path transform="translate(0,0)" d="M780.1090713873873,281.26094068817235L740.4644814942574,254.19557707500203" style="fill: none; stroke: #ccc; stroke-width: 0.5;"></path><path transform="translate(0,0)" d="M756.9251597053825,298.55365585665896L740.4644814942574,254.19557707500203" style="fill: none; stroke: #ccc; stroke-width: 0.5;"></path><path transform="translate(0,0)" d="M756.9251597053825,298.55365585665896L780.1090713873873,281.26094068817235" style="fill: none; stroke: #ccc; stroke-width: 0.5;"></path><path transform="translate(0,0)" d="M699.4585945072312,280.0642692603792L652.0385447004616,271.49015090472795" style="fill: none; stroke: #ccc; stroke-width: 0.5;"></path><path transform="translate(0,0)" d="M699.4585945072312,280.0642692603792L671.0094892061591,277.8173408499372" style="fill: none; stroke: #ccc; stroke-width: 0.5;"></path><path transform="translate(0,0)" d="M699.4585945072312,280.0642692603792L642.9515040999959,233.18152113974608" style="fill: none; stroke: #ccc; stroke-width: 0.5;"></path><path transform="translate(0,0)" d="M699.4585945072312,280.0642692603792L740.4644814942574,254.19557707500203" style="fill: none; stroke: #ccc; stroke-width: 0.5;"></path><path transform="translate(0,0)" d="M699.4585945072312,280.0642692603792L696.8145657081535,232.82508270296927" style="fill: none; stroke: #ccc; stroke-width: 0.5;"></path><path transform="translate(0,0)" d="M699.4585945072312,280.0642692603792L663.9102307529081,254.5120379583502" style="fill: none; stroke: #ccc; stroke-width: 0.5;"></path><path transform="translate(0,0)" d="M699.4585945072312,280.0642692603792L660.454549719746,294.80365363387097" style="fill: none; stroke: #ccc; stroke-width: 0.5;"></path><path transform="translate(0,0)" d="M795.4678490341993,243.44660514756018L757.7223226022121,228.64763098702733" style="fill: none; stroke: #ccc; stroke-width: 0.5;"></path><path transform="translate(0,0)" d="M795.4678490341993,243.44660514756018L807.1398561338783,190.36747951356796" style="fill: none; stroke: #ccc; stroke-width: 0.5;"></path><path transform="translate(0,0)" d="M795.4678490341993,243.44660514756018L818.570467641823,240.12427497998436" style="fill: none; stroke: #ccc; stroke-width: 0.5;"></path><path transform="translate(0,0)" d="M795.4678490341993,243.44660514756018L800.7409184827287,209.31423648577712" style="fill: none; stroke: #ccc; stroke-width: 0.5;"></path><path transform="translate(0,0)" d="M795.4678490341993,243.44660514756018L774.2469376888774,203.22560895564843" style="fill: none; stroke: #ccc; stroke-width: 0.5;"></path><path transform="translate(0,0)" d="M795.4678490341993,243.44660514756018L740.4644814942574,254.19557707500203" style="fill: none; stroke: #ccc; stroke-width: 0.5;"></path><path transform="translate(0,0)" d="M795.4678490341993,243.44660514756018L738.202778293078,221.73347929734743" style="fill: none; stroke: #ccc; stroke-width: 0.5;"></path></g><g class="mark-symbol role-mark nodes"><path transform="translate(458.6312262210035,365.9256446026234)" d="M5.656854249492381,0A5.656854249492381,5.656854249492381,0,1,1,-5.656854249492381,0A5.656854249492381,5.656854249492381,0,1,1,5.656854249492381,0" style="fill: #3182bd; stroke: white;"></path><path transform="translate(443.7953638129515,407.403312686114)" d="M5.656854249492381,0A5.656854249492381,5.656854249492381,0,1,1,-5.656854249492381,0A5.656854249492381,5.656854249492381,0,1,1,5.656854249492381,0" style="fill: #3182bd; stroke: white;"></path><path transform="translate(498.2321700162731,311.3546330874447)" d="M5.656854249492381,0A5.656854249492381,5.656854249492381,0,1,1,-5.656854249492381,0A5.656854249492381,5.656854249492381,0,1,1,5.656854249492381,0" style="fill: #3182bd; stroke: white;"></path><path transform="translate(514.2401416808648,325.5834001931883)" d="M5.656854249492381,0A5.656854249492381,5.656854249492381,0,1,1,-5.656854249492381,0A5.656854249492381,5.656854249492381,0,1,1,5.656854249492381,0" style="fill: #3182bd; stroke: white;"></path><path transform="translate(433.55551377722213,390.227738752711)" d="M5.656854249492381,0A5.656854249492381,5.656854249492381,0,1,1,-5.656854249492381,0A5.656854249492381,5.656854249492381,0,1,1,5.656854249492381,0" style="fill: #3182bd; stroke: white;"></path><path transform="translate(423.3016972277261,373.0620208324311)" d="M5.656854249492381,0A5.656854249492381,5.656854249492381,0,1,1,-5.656854249492381,0A5.656854249492381,5.656854249492381,0,1,1,5.656854249492381,0" style="fill: #3182bd; stroke: white;"></path><path transform="translate(463.7373763446588,406.0381172281403)" d="M5.656854249492381,0A5.656854249492381,5.656854249492381,0,1,1,-5.656854249492381,0A5.656854249492381,5.656854249492381,0,1,1,5.656854249492381,0" style="fill: #3182bd; stroke: white;"></path><path transform="translate(413.55829822018933,390.5071189620291)" d="M5.656854249492381,0A5.656854249492381,5.656854249492381,0,1,1,-5.656854249492381,0A5.656854249492381,5.656854249492381,0,1,1,5.656854249492381,0" style="fill: #3182bd; stroke: white;"></path><path transform="translate(415.31939860851537,354.73807962982045)" d="M5.656854249492381,0A5.656854249492381,5.656854249492381,0,1,1,-5.656854249492381,0A5.656854249492381,5.656854249492381,0,1,1,5.656854249492381,0" style="fill: #3182bd; stroke: white;"></path><path transform="translate(423.80893431877666,407.674339766563)" d="M5.656854249492381,0A5.656854249492381,5.656854249492381,0,1,1,-5.656854249492381,0A5.656854249492381,5.656854249492381,0,1,1,5.656854249492381,0" style="fill: #3182bd; stroke: white;"></path><path transform="translate(604.8634203234334,304.38464053468584)" d="M5.656854249492381,0A5.656854249492381,5.656854249492381,0,1,1,-5.656854249492381,0A5.656854249492381,5.656854249492381,0,1,1,5.656854249492381,0" style="fill: #6baed6; stroke: white;"></path><path transform="translate(581.9732336026941,275.3949753799287)" d="M5.656854249492381,0A5.656854249492381,5.656854249492381,0,1,1,-5.656854249492381,0A5.656854249492381,5.656854249492381,0,1,1,5.656854249492381,0" style="fill: #6baed6; stroke: white;"></path><path transform="translate(512.3080472608069,227.66335191339977)" d="M5.656854249492381,0A5.656854249492381,5.656854249492381,0,1,1,-5.656854249492381,0A5.656854249492381,5.656854249492381,0,1,1,5.656854249492381,0" style="fill: #9ecae1; stroke: white;"></path><path transform="translate(585.5262995048894,309.4852989188598)" d="M5.656854249492381,0A5.656854249492381,5.656854249492381,0,1,1,-5.656854249492381,0A5.656854249492381,5.656854249492381,0,1,1,5.656854249492381,0" style="fill: #6baed6; stroke: white;"></path><path transform="translate(549.4444938646427,292.07417374833744)" d="M5.656854249492381,0A5.656854249492381,5.656854249492381,0,1,1,-5.656854249492381,0A5.656854249492381,5.656854249492381,0,1,1,5.656854249492381,0" style="fill: #6baed6; stroke: white;"></path><path transform="translate(544.3268024457544,272.7411976050241)" d="M5.656854249492381,0A5.656854249492381,5.656854249492381,0,1,1,-5.656854249492381,0A5.656854249492381,5.656854249492381,0,1,1,5.656854249492381,0" style="fill: #6baed6; stroke: white;"></path><path transform="translate(476.1678030297617,128.08230001688645)" d="M5.656854249492381,0A5.656854249492381,5.656854249492381,0,1,1,-5.656854249492381,0A5.656854249492381,5.656854249492381,0,1,1,5.656854249492381,0" style="fill: #9ecae1; stroke: white;"></path><path transform="translate(417.83772412898287,132.04747638614143)" d="M5.656854249492381,0A5.656854249492381,5.656854249492381,0,1,1,-5.656854249492381,0A5.656854249492381,5.656854249492381,0,1,1,5.656854249492381,0" style="fill: #9ecae1; stroke: white;"></path><path transform="translate(419.02989888160283,94.75484645503336)" d="M5.656854249492381,0A5.656854249492381,5.656854249492381,0,1,1,-5.656854249492381,0A5.656854249492381,5.656854249492381,0,1,1,5.656854249492381,0" style="fill: #9ecae1; stroke: white;"></path><path transform="translate(399.62739576123755,141.66447482883183)" d="M5.656854249492381,0A5.656854249492381,5.656854249492381,0,1,1,-5.656854249492381,0A5.656854249492381,5.656854249492381,0,1,1,5.656854249492381,0" style="fill: #9ecae1; stroke: white;"></path><path transform="translate(399.35948885109997,104.36058214902931)" d="M5.656854249492381,0A5.656854249492381,5.656854249492381,0,1,1,-5.656854249492381,0A5.656854249492381,5.656854249492381,0,1,1,5.656854249492381,0" style="fill: #9ecae1; stroke: white;"></path><path transform="translate(427.54185282536105,112.85305044640049)" d="M5.656854249492381,0A5.656854249492381,5.656854249492381,0,1,1,-5.656854249492381,0A5.656854249492381,5.656854249492381,0,1,1,5.656854249492381,0" style="fill: #9ecae1; stroke: white;"></path><path transform="translate(389.7272107486644,122.82785681146518)" d="M5.656854249492381,0A5.656854249492381,5.656854249492381,0,1,1,-5.656854249492381,0A5.656854249492381,5.656854249492381,0,1,1,5.656854249492381,0" style="fill: #9ecae1; stroke: white;"></path><path transform="translate(477.6382880150291,177.2554407903488)" d="M5.656854249492381,0A5.656854249492381,5.656854249492381,0,1,1,-5.656854249492381,0A5.656854249492381,5.656854249492381,0,1,1,5.656854249492381,0" style="fill: #9ecae1; stroke: white;"></path><path transform="translate(608.6714915080366,223.66328204630307)" d="M5.656854249492381,0A5.656854249492381,5.656854249492381,0,1,1,-5.656854249492381,0A5.656854249492381,5.656854249492381,0,1,1,5.656854249492381,0" style="fill: #c6dbef; stroke: white;"></path><path transform="translate(642.9515040999959,233.18152113974608)" d="M5.656854249492381,0A5.656854249492381,5.656854249492381,0,1,1,-5.656854249492381,0A5.656854249492381,5.656854249492381,0,1,1,5.656854249492381,0" style="fill: #c6dbef; stroke: white;"></path><path transform="translate(580.1874742488745,192.0192201503581)" d="M5.656854249492381,0A5.656854249492381,5.656854249492381,0,1,1,-5.656854249492381,0A5.656854249492381,5.656854249492381,0,1,1,5.656854249492381,0" style="fill: #e6550d; stroke: white;"></path><path transform="translate(606.1081512335322,256.4185628955555)" d="M5.656854249492381,0A5.656854249492381,5.656854249492381,0,1,1,-5.656854249492381,0A5.656854249492381,5.656854249492381,0,1,1,5.656854249492381,0" style="fill: #c6dbef; stroke: white;"></path><path transform="translate(578.5644392687642,328.2291268411255)" d="M5.656854249492381,0A5.656854249492381,5.656854249492381,0,1,1,-5.656854249492381,0A5.656854249492381,5.656854249492381,0,1,1,5.656854249492381,0" style="fill: #fd8d3c; stroke: white;"></path><path transform="translate(512.8031618630108,289.0148888972057)" d="M5.656854249492381,0A5.656854249492381,5.656854249492381,0,1,1,-5.656854249492381,0A5.656854249492381,5.656854249492381,0,1,1,5.656854249492381,0" style="fill: #6baed6; stroke: white;"></path><path transform="translate(474.7901185674864,210.1101565435234)" d="M5.656854249492381,0A5.656854249492381,5.656854249492381,0,1,1,-5.656854249492381,0A5.656854249492381,5.656854249492381,0,1,1,5.656854249492381,0" style="fill: #9ecae1; stroke: white;"></path><path transform="translate(532.2778791385103,226.7596883818114)" d="M5.656854249492381,0A5.656854249492381,5.656854249492381,0,1,1,-5.656854249492381,0A5.656854249492381,5.656854249492381,0,1,1,5.656854249492381,0" style="fill: #6baed6; stroke: white;"></path><path transform="translate(563.4037715398712,306.39610824785467)" d="M5.656854249492381,0A5.656854249492381,5.656854249492381,0,1,1,-5.656854249492381,0A5.656854249492381,5.656854249492381,0,1,1,5.656854249492381,0" style="fill: #6baed6; stroke: white;"></path><path transform="translate(562.9858004130375,253.6539683835812)" d="M5.656854249492381,0A5.656854249492381,5.656854249492381,0,1,1,-5.656854249492381,0A5.656854249492381,5.656854249492381,0,1,1,5.656854249492381,0" style="fill: #6baed6; stroke: white;"></path><path transform="translate(533.7494743120698,329.9715518448439)" d="M5.656854249492381,0A5.656854249492381,5.656854249492381,0,1,1,-5.656854249492381,0A5.656854249492381,5.656854249492381,0,1,1,5.656854249492381,0" style="fill: #6baed6; stroke: white;"></path><path transform="translate(495.01813301297665,331.09332983277375)" d="M5.656854249492381,0A5.656854249492381,5.656854249492381,0,1,1,-5.656854249492381,0A5.656854249492381,5.656854249492381,0,1,1,5.656854249492381,0" style="fill: #6baed6; stroke: white;"></path><path transform="translate(543.0676056346341,349.0563799474161)" d="M5.656854249492381,0A5.656854249492381,5.656854249492381,0,1,1,-5.656854249492381,0A5.656854249492381,5.656854249492381,0,1,1,5.656854249492381,0" style="fill: #6baed6; stroke: white;"></path><path transform="translate(526.2558235784581,360.0541557772087)" d="M5.656854249492381,0A5.656854249492381,5.656854249492381,0,1,1,-5.656854249492381,0A5.656854249492381,5.656854249492381,0,1,1,5.656854249492381,0" style="fill: #6baed6; stroke: white;"></path><path transform="translate(510.315055777755,346.0111384986773)" d="M5.656854249492381,0A5.656854249492381,5.656854249492381,0,1,1,-5.656854249492381,0A5.656854249492381,5.656854249492381,0,1,1,5.656854249492381,0" style="fill: #6baed6; stroke: white;"></path><path transform="translate(658.5184765676283,171.0359345056189)" d="M5.656854249492381,0A5.656854249492381,5.656854249492381,0,1,1,-5.656854249492381,0A5.656854249492381,5.656854249492381,0,1,1,5.656854249492381,0" style="fill: #c6dbef; stroke: white;"></path><path transform="translate(631.9975966216448,202.1233787593499)" d="M5.656854249492381,0A5.656854249492381,5.656854249492381,0,1,1,-5.656854249492381,0A5.656854249492381,5.656854249492381,0,1,1,5.656854249492381,0" style="fill: #fdae6b; stroke: white;"></path><path transform="translate(696.8145657081535,232.82508270296927)" d="M5.656854249492381,0A5.656854249492381,5.656854249492381,0,1,1,-5.656854249492381,0A5.656854249492381,5.656854249492381,0,1,1,5.656854249492381,0" style="fill: #c6dbef; stroke: white;"></path><path transform="translate(660.2799241594613,210.27708395728212)" d="M5.656854249492381,0A5.656854249492381,5.656854249492381,0,1,1,-5.656854249492381,0A5.656854249492381,5.656854249492381,0,1,1,5.656854249492381,0" style="fill: #c6dbef; stroke: white;"></path><path transform="translate(561.022024452227,233.75100229676917)" d="M5.656854249492381,0A5.656854249492381,5.656854249492381,0,1,1,-5.656854249492381,0A5.656854249492381,5.656854249492381,0,1,1,5.656854249492381,0" style="fill: #e6550d; stroke: white;"></path><path transform="translate(602.315361581726,325.80535718906714)" d="M5.656854249492381,0A5.656854249492381,5.656854249492381,0,1,1,-5.656854249492381,0A5.656854249492381,5.656854249492381,0,1,1,5.656854249492381,0" style="fill: #fd8d3c; stroke: white;"></path><path transform="translate(577.6093063017047,371.8311120782261)" d="M5.656854249492381,0A5.656854249492381,5.656854249492381,0,1,1,-5.656854249492381,0A5.656854249492381,5.656854249492381,0,1,1,5.656854249492381,0" style="fill: #fd8d3c; stroke: white;"></path><path transform="translate(804.0518554954082,339.6162103158887)" d="M5.656854249492381,0A5.656854249492381,5.656854249492381,0,1,1,-5.656854249492381,0A5.656854249492381,5.656854249492381,0,1,1,5.656854249492381,0" style="fill: #fdd0a2; stroke: white;"></path><path transform="translate(778.3677859008643,303.86158948860225)" d="M5.656854249492381,0A5.656854249492381,5.656854249492381,0,1,1,-5.656854249492381,0A5.656854249492381,5.656854249492381,0,1,1,5.656854249492381,0" style="fill: #fdd0a2; stroke: white;"></path><path transform="translate(740.4644814942574,254.19557707500203)" d="M5.656854249492381,0A5.656854249492381,5.656854249492381,0,1,1,-5.656854249492381,0A5.656854249492381,5.656854249492381,0,1,1,5.656854249492381,0" style="fill: #31a354; stroke: white;"></path><path transform="translate(626.170006958596,182.99202427777578)" d="M5.656854249492381,0A5.656854249492381,5.656854249492381,0,1,1,-5.656854249492381,0A5.656854249492381,5.656854249492381,0,1,1,5.656854249492381,0" style="fill: #e6550d; stroke: white;"></path><path transform="translate(592.8627242318597,176.55379984218834)" d="M5.656854249492381,0A5.656854249492381,5.656854249492381,0,1,1,-5.656854249492381,0A5.656854249492381,5.656854249492381,0,1,1,5.656854249492381,0" style="fill: #e6550d; stroke: white;"></path><path transform="translate(609.3342528861635,164.37503427743866)" d="M5.656854249492381,0A5.656854249492381,5.656854249492381,0,1,1,-5.656854249492381,0A5.656854249492381,5.656854249492381,0,1,1,5.656854249492381,0" style="fill: #e6550d; stroke: white;"></path><path transform="translate(631.8531376482078,125.41508537057987)" d="M5.656854249492381,0A5.656854249492381,5.656854249492381,0,1,1,-5.656854249492381,0A5.656854249492381,5.656854249492381,0,1,1,5.656854249492381,0" style="fill: #e6550d; stroke: white;"></path><path transform="translate(593.1170235523937,125.7627510445412)" d="M5.656854249492381,0A5.656854249492381,5.656854249492381,0,1,1,-5.656854249492381,0A5.656854249492381,5.656854249492381,0,1,1,5.656854249492381,0" style="fill: #e6550d; stroke: white;"></path><path transform="translate(637.1731946950333,150.28260384090785)" d="M5.656854249492381,0A5.656854249492381,5.656854249492381,0,1,1,-5.656854249492381,0A5.656854249492381,5.656854249492381,0,1,1,5.656854249492381,0" style="fill: #e6550d; stroke: white;"></path><path transform="translate(694.1174876961775,183.9442960290481)" d="M5.656854249492381,0A5.656854249492381,5.656854249492381,0,1,1,-5.656854249492381,0A5.656854249492381,5.656854249492381,0,1,1,5.656854249492381,0" style="fill: #31a354; stroke: white;"></path><path transform="translate(668.2116647054603,151.45750469659492)" d="M5.656854249492381,0A5.656854249492381,5.656854249492381,0,1,1,-5.656854249492381,0A5.656854249492381,5.656854249492381,0,1,1,5.656854249492381,0" style="fill: #e6550d; stroke: white;"></path><path transform="translate(759.7828836144007,180.5673398473382)" d="M5.656854249492381,0A5.656854249492381,5.656854249492381,0,1,1,-5.656854249492381,0A5.656854249492381,5.656854249492381,0,1,1,5.656854249492381,0" style="fill: #31a354; stroke: white;"></path><path transform="translate(738.202778293078,221.73347929734743)" d="M5.656854249492381,0A5.656854249492381,5.656854249492381,0,1,1,-5.656854249492381,0A5.656854249492381,5.656854249492381,0,1,1,5.656854249492381,0" style="fill: #31a354; stroke: white;"></path><path transform="translate(787.4478799066452,184.17416010330035)" d="M5.656854249492381,0A5.656854249492381,5.656854249492381,0,1,1,-5.656854249492381,0A5.656854249492381,5.656854249492381,0,1,1,5.656854249492381,0" style="fill: #31a354; stroke: white;"></path><path transform="translate(819.8169885257296,220.1633465300202)" d="M5.656854249492381,0A5.656854249492381,5.656854249492381,0,1,1,-5.656854249492381,0A5.656854249492381,5.656854249492381,0,1,1,5.656854249492381,0" style="fill: #31a354; stroke: white;"></path><path transform="translate(785.063025850477,221.7309087748347)" d="M5.656854249492381,0A5.656854249492381,5.656854249492381,0,1,1,-5.656854249492381,0A5.656854249492381,5.656854249492381,0,1,1,5.656854249492381,0" style="fill: #31a354; stroke: white;"></path><path transform="translate(774.2469376888774,203.22560895564843)" d="M5.656854249492381,0A5.656854249492381,5.656854249492381,0,1,1,-5.656854249492381,0A5.656854249492381,5.656854249492381,0,1,1,5.656854249492381,0" style="fill: #31a354; stroke: white;"></path><path transform="translate(800.7409184827287,209.31423648577712)" d="M5.656854249492381,0A5.656854249492381,5.656854249492381,0,1,1,-5.656854249492381,0A5.656854249492381,5.656854249492381,0,1,1,5.656854249492381,0" style="fill: #31a354; stroke: white;"></path><path transform="translate(757.7223226022121,228.64763098702733)" d="M5.656854249492381,0A5.656854249492381,5.656854249492381,0,1,1,-5.656854249492381,0A5.656854249492381,5.656854249492381,0,1,1,5.656854249492381,0" style="fill: #31a354; stroke: white;"></path><path transform="translate(807.1398561338783,190.36747951356796)" d="M5.656854249492381,0A5.656854249492381,5.656854249492381,0,1,1,-5.656854249492381,0A5.656854249492381,5.656854249492381,0,1,1,5.656854249492381,0" style="fill: #31a354; stroke: white;"></path><path transform="translate(818.570467641823,240.12427497998436)" d="M5.656854249492381,0A5.656854249492381,5.656854249492381,0,1,1,-5.656854249492381,0A5.656854249492381,5.656854249492381,0,1,1,5.656854249492381,0" style="fill: #31a354; stroke: white;"></path><path transform="translate(782.2794929700933,147.1648203400411)" d="M5.656854249492381,0A5.656854249492381,5.656854249492381,0,1,1,-5.656854249492381,0A5.656854249492381,5.656854249492381,0,1,1,5.656854249492381,0" style="fill: #74c476; stroke: white;"></path><path transform="translate(671.0094892061591,277.8173408499372)" d="M5.656854249492381,0A5.656854249492381,5.656854249492381,0,1,1,-5.656854249492381,0A5.656854249492381,5.656854249492381,0,1,1,5.656854249492381,0" style="fill: #c6dbef; stroke: white;"></path><path transform="translate(652.0385447004616,271.49015090472795)" d="M5.656854249492381,0A5.656854249492381,5.656854249492381,0,1,1,-5.656854249492381,0A5.656854249492381,5.656854249492381,0,1,1,5.656854249492381,0" style="fill: #c6dbef; stroke: white;"></path><path transform="translate(663.9102307529081,254.5120379583502)" d="M5.656854249492381,0A5.656854249492381,5.656854249492381,0,1,1,-5.656854249492381,0A5.656854249492381,5.656854249492381,0,1,1,5.656854249492381,0" style="fill: #c6dbef; stroke: white;"></path><path transform="translate(660.454549719746,294.80365363387097)" d="M5.656854249492381,0A5.656854249492381,5.656854249492381,0,1,1,-5.656854249492381,0A5.656854249492381,5.656854249492381,0,1,1,5.656854249492381,0" style="fill: #c6dbef; stroke: white;"></path><path transform="translate(580.8120637908798,230.90542198799886)" d="M5.656854249492381,0A5.656854249492381,5.656854249492381,0,1,1,-5.656854249492381,0A5.656854249492381,5.656854249492381,0,1,1,5.656854249492381,0" style="fill: #e6550d; stroke: white;"></path><path transform="translate(780.1090713873873,281.26094068817235)" d="M5.656854249492381,0A5.656854249492381,5.656854249492381,0,1,1,-5.656854249492381,0A5.656854249492381,5.656854249492381,0,1,1,5.656854249492381,0" style="fill: #a1d99b; stroke: white;"></path><path transform="translate(756.9251597053825,298.55365585665896)" d="M5.656854249492381,0A5.656854249492381,5.656854249492381,0,1,1,-5.656854249492381,0A5.656854249492381,5.656854249492381,0,1,1,5.656854249492381,0" style="fill: #a1d99b; stroke: white;"></path><path transform="translate(699.4585945072312,280.0642692603792)" d="M5.656854249492381,0A5.656854249492381,5.656854249492381,0,1,1,-5.656854249492381,0A5.656854249492381,5.656854249492381,0,1,1,5.656854249492381,0" style="fill: #c6dbef; stroke: white;"></path><path transform="translate(795.4678490341993,243.44660514756018)" d="M5.656854249492381,0A5.656854249492381,5.656854249492381,0,1,1,-5.656854249492381,0A5.656854249492381,5.656854249492381,0,1,1,5.656854249492381,0" style="fill: #31a354; stroke: white;"></path></g></g><path class="foreground" d="" style="display: none; fill: none;"></path></g></g></g></svg>